<mxfile host="app.diagrams.net" modified="2023-05-26T02:24:15.161Z" agent="Mozilla/5.0 (Macintosh; Intel Mac OS X 10_15_7) AppleWebKit/537.36 (KHTML, like Gecko) Chrome/112.0.0.0 Safari/537.36" etag="VWHiBiRIX4_qH-LoKnyF" version="21.3.3" type="github">
  <diagram name="第 1 页" id="jCAfWQSs3HSzGmGDU67i">
    <mxGraphModel dx="1434" dy="771" grid="1" gridSize="10" guides="1" tooltips="1" connect="1" arrows="1" fold="1" page="1" pageScale="1" pageWidth="827" pageHeight="1169" math="0" shadow="0">
      <root>
        <mxCell id="0" />
        <mxCell id="1" parent="0" />
        <mxCell id="O3oNsUuXgrW0a2xMxgpK-3" value="" style="edgeStyle=orthogonalEdgeStyle;rounded=0;orthogonalLoop=1;jettySize=auto;html=1;" edge="1" parent="1" source="O3oNsUuXgrW0a2xMxgpK-1" target="O3oNsUuXgrW0a2xMxgpK-2">
          <mxGeometry relative="1" as="geometry" />
        </mxCell>
        <mxCell id="O3oNsUuXgrW0a2xMxgpK-4" style="edgeStyle=orthogonalEdgeStyle;rounded=0;orthogonalLoop=1;jettySize=auto;html=1;exitX=0.5;exitY=1;exitDx=0;exitDy=0;" edge="1" parent="1" source="O3oNsUuXgrW0a2xMxgpK-1">
          <mxGeometry relative="1" as="geometry">
            <mxPoint x="520" y="260" as="targetPoint" />
          </mxGeometry>
        </mxCell>
        <mxCell id="O3oNsUuXgrW0a2xMxgpK-1" value="Tomcat服务器" style="rounded=0;whiteSpace=wrap;html=1;" vertex="1" parent="1">
          <mxGeometry x="200" y="120" width="400" height="60" as="geometry" />
        </mxCell>
        <mxCell id="O3oNsUuXgrW0a2xMxgpK-2" value="web端页面展示" style="whiteSpace=wrap;html=1;rounded=0;verticalAlign=top;" vertex="1" parent="1">
          <mxGeometry x="220" y="260" width="120" height="200" as="geometry" />
        </mxCell>
        <mxCell id="O3oNsUuXgrW0a2xMxgpK-5" value="主体服务" style="rounded=0;whiteSpace=wrap;html=1;verticalAlign=top;" vertex="1" parent="1">
          <mxGeometry x="460" y="260" width="120" height="200" as="geometry" />
        </mxCell>
        <mxCell id="O3oNsUuXgrW0a2xMxgpK-6" value="多光谱缺陷地图" style="rounded=1;whiteSpace=wrap;html=1;" vertex="1" parent="1">
          <mxGeometry x="230" y="310" width="100" height="30" as="geometry" />
        </mxCell>
        <mxCell id="O3oNsUuXgrW0a2xMxgpK-7" value="多光谱缺陷诊断" style="rounded=1;whiteSpace=wrap;html=1;" vertex="1" parent="1">
          <mxGeometry x="230" y="360" width="100" height="30" as="geometry" />
        </mxCell>
        <mxCell id="O3oNsUuXgrW0a2xMxgpK-8" value="多光谱诊断报告" style="rounded=1;whiteSpace=wrap;html=1;" vertex="1" parent="1">
          <mxGeometry x="230" y="410" width="100" height="30" as="geometry" />
        </mxCell>
        <mxCell id="O3oNsUuXgrW0a2xMxgpK-9" value="多光谱缺陷地图服务接口" style="rounded=1;whiteSpace=wrap;html=1;" vertex="1" parent="1">
          <mxGeometry x="470" y="310" width="100" height="30" as="geometry" />
        </mxCell>
        <mxCell id="O3oNsUuXgrW0a2xMxgpK-10" value="多光谱缺陷诊断服务接口" style="rounded=1;whiteSpace=wrap;html=1;" vertex="1" parent="1">
          <mxGeometry x="470" y="360" width="100" height="30" as="geometry" />
        </mxCell>
        <mxCell id="O3oNsUuXgrW0a2xMxgpK-11" value="多光谱诊断报告接口" style="rounded=1;whiteSpace=wrap;html=1;" vertex="1" parent="1">
          <mxGeometry x="470" y="410" width="100" height="30" as="geometry" />
        </mxCell>
      </root>
    </mxGraphModel>
  </diagram>
</mxfile>
